HIERARCHY
ROOT SpineBase
{
  OFFSET 0.000000 0.000000 0.000000
  CHANNELS 6 Xposition Yposition Zposition Zrotation Xrotation Yrotation
  JOINT SpineMid
  {
    OFFSET -0.000000 28.864359 0.000000
    CHANNELS 3 Zrotation Xrotation Yrotation
    JOINT SpineShoulder
    {
      OFFSET -0.027927 21.371930 -0.700605
      CHANNELS 3 Zrotation Xrotation Yrotation
      JOINT Neck
      {
        OFFSET -0.030081 7.059828 -0.569660
        CHANNELS 3 Zrotation Xrotation Yrotation
        JOINT Head
        {
          OFFSET 2.461838 11.148873 0.962178
          CHANNELS 3 Zrotation Xrotation Yrotation
          End Site
          {
            OFFSET 0 0 0
          }
        }
      }
      JOINT ShoulderLeft
      {
        OFFSET -16.907721 -3.585042 -3.387260
        CHANNELS 3 Zrotation Xrotation Yrotation
        JOINT ElbowLeft
        {
          OFFSET -3.946551 -24.541825 -1.862649
          CHANNELS 3 Zrotation Xrotation Yrotation
          JOINT WristLeft
          {
            OFFSET -0.339245 -19.965698 -5.991715
            CHANNELS 3 Zrotation Xrotation Yrotation
            JOINT HandLeft
            {
              OFFSET 1.559699 -5.364162 -0.373786
              CHANNELS 3 Zrotation Xrotation Yrotation
              JOINT HandTipLeft
              {
                OFFSET 0.511998 -7.005889 -1.222944
                CHANNELS 3 Zrotation Xrotation Yrotation
                End Site
                {
                  OFFSET 0 0 0
                }
              }
              JOINT ThumbLeft
              {
                OFFSET 3.317761 -0.992342 -2.178280
                CHANNELS 3 Zrotation Xrotation Yrotation
                End Site
                {
                  OFFSET 0 0 0
                }
              }
            }
          }
        }
      }
      JOINT ShoulderRight
      {
        OFFSET 16.758964 -4.638261 1.603745
        CHANNELS 3 Zrotation Xrotation Yrotation
        JOINT ElbowRight
        {
          OFFSET 2.924603 -25.441827 0.835780
          CHANNELS 3 Zrotation Xrotation Yrotation
          JOINT WristRight
          {
            OFFSET -0.109518 -20.184935 -5.947042
            CHANNELS 3 Zrotation Xrotation Yrotation
            JOINT HandRight
            {
              OFFSET -2.215996 -4.160568 -1.107761
              CHANNELS 3 Zrotation Xrotation Yrotation
              JOINT HandTipRight
              {
                OFFSET 0.508576 -4.713836 -1.631426
                CHANNELS 3 Zrotation Xrotation Yrotation
                End Site
                {
                  OFFSET 0 0 0
                }
              }
              JOINT ThumbRight
              {
                OFFSET 2.304028 -0.069023 -3.129159
                CHANNELS 3 Zrotation Xrotation Yrotation
                End Site
                {
                  OFFSET 0 0 0
                }
              }
            }
          }
        }
      }
    }
  }
  JOINT HipLeft
  {
    OFFSET -6.320888 0.974507 -4.734697
    CHANNELS 3 Zrotation Xrotation Yrotation
    JOINT KneeLeft
    {
      OFFSET -9.031973 -26.978734 -2.810495
      CHANNELS 3 Zrotation Xrotation Yrotation
      JOINT AnkleLeft
      {
        OFFSET -5.585141 -32.964846 2.478474
        CHANNELS 3 Zrotation Xrotation Yrotation
        JOINT FootLeft
        {
          OFFSET 1.658212 -2.743835 -15.836993
          CHANNELS 3 Zrotation Xrotation Yrotation
          End Site
          {
            OFFSET 0 0 0
          }
        }
      }
    }
  }
  JOINT HipRight
  {
    OFFSET 5.238481 -0.137809 -2.940011
    CHANNELS 3 Zrotation Xrotation Yrotation
    JOINT KneeRight
    {
      OFFSET 2.809670 -29.529283 7.252489
      CHANNELS 3 Zrotation Xrotation Yrotation
      JOINT AnkleRight
      {
        OFFSET 1.742973 -29.216636 8.545419
        CHANNELS 3 Zrotation Xrotation Yrotation
        JOINT FootRight
        {
          OFFSET 2.951578 -7.787815 -4.143931
          CHANNELS 3 Zrotation Xrotation Yrotation
          End Site
          {
            OFFSET 0 0 0
          }
        }
      }
    }
  }
}
MOTION
Frames: 9
Frame Time: 0.033333
58.681600 69.760415 426.276491 0.000000 0.000000 -8.825174 -0.000000 -0.000000 8.825174 -0.000000 0.000000 0.000000 -0.000000 0.000000 0.000000 0.000000 0.000000 0.000000 -0.000000 0.000000 0.000000 -0.000000 0.000000 0.000000 -0.000000 0.000000 0.000000 -0.000000 0.000000 0.000000 0.000000 0.000000 0.000000 0.000000 0.000000 0.000000 -0.000000 0.000000 0.000000 -0.000000 0.000000 0.000000 -0.000000 0.000000 0.000000 -0.000000 0.000000 0.000000 0.000000 0.000000 0.000000 0.000000 0.000000 0.000000 -0.000000 -0.000000 8.825174 -0.000000 0.000000 0.000000 -0.000000 0.000000 0.000000 0.000000 0.000000 0.000000 -0.000000 -0.000000 8.825174 -0.000000 0.000000 0.000000 -0.000000 0.000000 0.000000 0.000000 0.000000 0.000000
58.681047 69.745084 426.321216 -0.097483 -0.032647 -8.725784 0.091402 0.047058 8.725719 -0.000000 0.000000 0.000000 -0.000000 0.000000 0.000000 0.000000 0.000000 0.000000 -0.000000 0.000000 0.000000 -0.000000 0.000000 0.000000 0.095064 0.916933 0.259023 -1.565700 -0.750547 -0.013998 0.000000 0.000000 0.000000 0.000000 0.000000 0.000000 -0.000000 0.000000 0.000000 -0.000000 0.000000 0.000000 0.221061 -2.346317 1.203289 -3.418730 1.527461 -0.057740 0.000000 0.000000 0.000000 0.000000 0.000000 0.000000 0.091402 0.047058 8.725719 -0.000000 0.000000 0.000000 -0.957133 -7.739583 1.282497 0.000000 0.000000 0.000000 0.091402 0.047058 8.725719 -0.000000 0.000000 0.000000 -0.000000 0.000000 0.000000 0.000000 0.000000 0.000000
58.681643 69.731092 426.360716 -0.188619 -0.057462 -8.635799 0.177853 0.085132 8.635572 -0.000000 0.000000 0.000000 -0.000000 0.000000 0.000000 0.000000 0.000000 0.000000 -0.000000 0.000000 0.000000 -0.000000 0.000000 0.000000 0.159981 1.700787 0.480345 -2.902910 -1.455603 -0.067166 0.000000 0.000000 0.000000 0.000000 0.000000 0.000000 -0.000000 0.000000 0.000000 0.301826 0.883699 -0.095833 0.062096 -4.854484 2.152599 -5.999166 2.396439 0.096392 0.000000 0.000000 0.000000 0.000000 0.000000 0.000000 0.177853 0.085132 8.635572 -0.000000 0.000000 0.000000 -1.818396 -16.083196 2.602462 0.000000 0.000000 0.000000 0.177853 0.085132 8.635572 -0.000000 0.000000 0.000000 -0.000000 0.000000 0.000000 0.000000 0.000000 0.000000
58.683388 69.718437 426.394989 -0.273371 -0.074424 -8.555149 0.259258 0.114262 8.554713 -0.000000 0.000000 0.000000 -0.000000 0.000000 0.000000 0.000000 0.000000 0.000000 -0.000000 0.000000 0.000000 -0.000000 0.000000 0.000000 0.194747 2.338336 0.661176 -3.968897 -2.113032 -0.146747 0.000000 0.000000 0.000000 0.000000 0.000000 0.000000 -0.000000 0.000000 0.000000 0.324613 1.191483 -0.105160 0.071496 -6.145638 2.695643 -7.861406 2.625849 0.324366 0.000000 0.000000 0.000000 0.000000 0.000000 0.000000 0.259258 0.114262 8.554713 -0.000000 0.000000 0.000000 -2.490029 -24.124287 3.878182 0.000000 0.000000 0.000000 0.259258 0.114262 8.554713 -0.000000 0.000000 0.000000 -0.000000 0.000000 0.000000 0.000000 0.000000 0.000000
58.686282 69.707121 426.424037 -0.351705 -0.083515 -8.483771 0.335537 0.134486 8.483120 -0.000000 0.000000 0.000000 -0.000000 0.000000 0.000000 0.000000 0.000000 0.000000 -0.000000 0.000000 0.000000 -0.000000 0.000000 0.000000 0.199745 2.819268 0.799281 -4.728378 -2.720897 -0.239841 0.000000 0.000000 0.000000 0.000000 0.000000 0.000000 -0.000000 0.000000 0.000000 0.261227 1.408241 -0.087501 0.046479 -6.756366 2.912813 -9.084792 2.231312 0.547064 0.000000 0.000000 0.000000 0.000000 0.000000 0.000000 0.335537 0.134486 8.483120 -0.000000 0.000000 0.000000 -2.917397 -30.812361 5.022462 0.000000 0.000000 0.000000 0.335537 0.134486 8.483120 -0.000000 0.000000 0.000000 0.555472 0.671559 -0.044085 0.000000 0.000000 0.000000
58.690324 69.697142 426.447859 -0.423593 -0.084723 -8.421607 0.406618 0.145845 8.420776 -0.000000 0.000000 0.000000 -0.000000 0.000000 0.000000 0.000000 0.000000 0.000000 -0.000000 0.000000 0.000000 -0.000000 0.000000 0.000000 0.175680 3.136522 0.893040 -5.155834 -3.276620 -0.334595 0.000000 0.000000 0.000000 0.000000 0.000000 0.000000 -0.000000 0.000000 0.000000 0.112014 1.533398 -0.042654 -0.018915 -6.709853 2.815747 -9.714207 1.212198 0.727165 0.000000 0.000000 0.000000 0.000000 0.000000 0.000000 0.406618 0.145845 8.420776 -0.000000 0.000000 0.000000 -3.109783 -35.320681 5.948955 0.000000 0.000000 0.000000 0.406618 0.145845 8.420776 -0.000000 0.000000 0.000000 0.632091 0.778699 -0.045248 0.000000 0.000000 0.000000
58.691415 69.690411 426.454653 -0.497565 -0.064779 -8.325391 0.482943 0.136138 8.324536 -0.000000 0.000000 0.000000 0.848313 -0.045070 -0.063032 0.000000 0.000000 0.000000 -0.000000 0.000000 0.000000 -0.000000 0.000000 0.000000 -0.049357 3.174629 0.926415 -4.962374 -2.877594 -0.303560 0.000000 0.000000 0.000000 0.000000 0.000000 0.000000 -0.000000 0.000000 0.000000 -0.265246 1.586426 0.072915 -0.355008 -5.481081 2.148329 -8.017162 -1.245039 0.374066 0.000000 0.000000 0.000000 0.000000 0.000000 0.000000 0.482943 0.136138 8.324536 -0.000000 0.000000 0.000000 -3.163131 -40.938876 7.477177 0.000000 0.000000 0.000000 0.482943 0.136138 8.324536 -0.000000 0.000000 0.000000 0.754919 1.049270 -0.010850 0.000000 0.000000 0.000000
58.697519 69.684390 426.464715 -0.555346 -0.035650 -8.249176 0.544486 0.114959 8.248457 -0.000000 0.000000 0.000000 0.864433 -0.237125 -0.020493 0.000000 0.000000 0.000000 -0.000000 0.000000 0.000000 -0.000000 0.000000 0.000000 0.039243 3.116465 0.900758 -5.647479 -4.099961 -0.363439 0.000000 0.000000 0.000000 0.000000 0.000000 0.000000 -0.000000 0.000000 0.000000 -0.484515 1.529936 0.140365 -0.796329 -3.937939 1.432998 -7.933139 -3.784842 0.767211 0.000000 0.000000 0.000000 0.000000 0.000000 0.000000 0.544486 0.114959 8.248457 -0.000000 0.000000 0.000000 -3.060073 -40.808970 7.925019 0.000000 0.000000 0.000000 0.544486 0.114959 8.248457 -0.000000 0.000000 0.000000 0.203000 0.915875 0.236320 0.000000 0.000000 0.000000
58.712245 69.674549 426.483767 -0.604070 -0.028569 -8.267853 0.593684 0.115134 8.267105 -0.000000 0.000000 0.000000 0.855233 -0.477951 0.035367 0.000000 0.000000 0.000000 -0.000000 0.000000 0.000000 0.345604 -0.815049 -0.087600 -0.631219 3.887425 1.016395 -4.994252 -3.572422 -0.339478 0.000000 0.000000 0.000000 0.000000 0.000000 0.000000 -0.000000 0.000000 0.000000 -0.855718 1.272360 0.253880 -0.332329 -3.462882 1.195370 -8.934364 -5.431951 0.899215 0.000000 0.000000 0.000000 0.000000 0.000000 0.000000 0.593684 0.115134 8.267105 -0.000000 0.000000 0.000000 -2.899534 -34.970101 7.176813 0.000000 0.000000 0.000000 0.593684 0.115134 8.267105 -0.000000 0.000000 0.000000 0.547325 0.961902 0.068310 0.000000 0.000000 0.000000
